<svg width="152" height="35" viewBox="0 0 152 35" fill="none" xmlns="http://www.w3.org/2000/svg">
<path d="M11.3709 17.9538C11.3872 18.6572 11.2607 19.3566 10.999 20.0097C10.7373 20.6628 10.3458 21.2561 9.84831 21.7536C9.35079 22.2511 8.75753 22.6426 8.10441 22.9043C7.45129 23.166 6.75188 23.2925 6.04846 23.2762H1.69354V29.5664H0V12.6313H6.04846C6.75242 12.6129 7.45274 12.7381 8.10679 12.9991C8.76083 13.26 9.35491 13.6514 9.85285 14.1494C10.3508 14.6473 10.7422 15.2414 11.0032 15.8954C11.2641 16.5495 11.3893 17.2498 11.3709 17.9538ZM9.6774 17.9538C9.6774 15.7762 8.15327 14.2281 6.04846 14.2281H1.69354V21.6794H6.04846C8.15327 21.6794 9.6774 20.107 9.6774 17.9538Z" fill="white"/>
<path d="M25.0651 17.4698V29.5664H23.4684V27.1959C22.9555 28.026 22.235 28.7081 21.378 29.1748C20.5209 29.6414 19.557 29.8765 18.5814 29.8568C16.9171 29.8312 15.3297 29.1522 14.1618 27.9662C12.994 26.7803 12.3394 25.1826 12.3394 23.5181C12.3394 21.8537 12.994 20.256 14.1618 19.0701C15.3297 17.8841 16.9171 17.205 18.5814 17.1795C19.5571 17.1598 20.521 17.395 21.3781 17.8617C22.2351 18.3285 22.9556 19.0107 23.4684 19.841V17.4698H25.0651ZM23.4684 23.5184C23.4636 22.5768 23.18 21.6577 22.6534 20.8771C22.1268 20.0965 21.3808 19.4894 20.5095 19.1324C19.6382 18.7754 18.6806 18.6844 17.7577 18.871C16.8348 19.0577 15.9878 19.5135 15.3236 20.181C14.6595 20.8485 14.208 21.6978 14.026 22.6217C13.8441 23.5456 13.9399 24.5026 14.3013 25.3721C14.6628 26.2416 15.2737 26.9845 16.0569 27.5072C16.8402 28.0298 17.7607 28.3087 18.7023 28.3087C19.332 28.315 19.9566 28.1952 20.5392 27.9563C21.1219 27.7175 21.6509 27.3645 22.095 26.9181C22.5391 26.4717 22.8895 25.9409 23.1253 25.3571C23.3612 24.7732 23.4778 24.148 23.4684 23.5184H23.4684Z" fill="white"/>
<path d="M31.3807 19.0184V26.349C31.3807 28.4293 32.5178 28.2601 34.8646 28.1632V29.5664C31.5984 30.0503 29.784 29.2518 29.784 26.349V19.0184H27.2437V17.4697H29.784V14.5666L31.3807 14.0826V17.4697H34.8646V19.0184H31.3807Z" fill="white"/>
<path d="M42.9457 17.2764V18.8247C41.0101 18.8247 39.1231 19.8409 39.1231 22.8407V29.5664H37.5264V17.4697H39.1231V19.4779C39.9698 17.7843 41.3973 17.2764 42.9457 17.2764Z" fill="white"/>
<path d="M44.7607 13.7441C44.7607 13.5145 44.8288 13.2899 44.9563 13.0989C45.0839 12.9079 45.2653 12.759 45.4775 12.6711C45.6896 12.5832 45.9231 12.5601 46.1484 12.6049C46.3737 12.6497 46.5806 12.7603 46.7431 12.9227C46.9055 13.0851 47.0161 13.292 47.061 13.5172C47.1058 13.7425 47.0828 13.976 46.995 14.1882C46.9071 14.4004 46.7582 14.5818 46.5673 14.7094C46.3763 14.8371 46.1518 14.9052 45.9221 14.9052C45.6142 14.9051 45.3189 14.7828 45.1011 14.565C44.8833 14.3473 44.7609 14.0521 44.7607 13.7441ZM45.1237 17.4698H46.7204V29.5664H45.1237V17.4698Z" fill="white"/>
<path d="M62.1071 17.4698V29.5664H60.5104V27.1959C59.9975 28.026 59.277 28.7081 58.42 29.1748C57.5629 29.6414 56.599 29.8765 55.6234 29.8568C53.9591 29.8312 52.3717 29.1522 51.2038 27.9662C50.036 26.7803 49.3813 25.1826 49.3813 23.5181C49.3813 21.8537 50.036 20.256 51.2038 19.0701C52.3717 17.8841 53.9591 17.205 55.6234 17.1795C56.5991 17.1598 57.563 17.395 58.4201 17.8617C59.2771 18.3285 59.9976 19.0107 60.5104 19.841V17.4698H62.1071ZM60.5104 23.5184C60.5056 22.5768 60.222 21.6577 59.6954 20.8771C59.1688 20.0965 58.4228 19.4894 57.5515 19.1324C56.6802 18.7754 55.7226 18.6844 54.7997 18.871C53.8767 19.0577 53.0298 19.5135 52.3656 20.181C51.7015 20.8485 51.25 21.6978 51.068 22.6217C50.8861 23.5455 50.9819 24.5026 51.3433 25.3721C51.7048 26.2416 52.3157 26.9845 53.0989 27.5071C53.8822 28.0298 54.8027 28.3087 55.7443 28.3087C56.374 28.315 56.9985 28.1952 57.5812 27.9563C58.1639 27.7175 58.6929 27.3645 59.137 26.9181C59.5811 26.4717 59.9315 25.941 60.1673 25.3571C60.4032 24.7732 60.5198 24.1481 60.5104 23.5184Z" fill="white"/>
<path d="M75.0272 26.6293V29.8227H65.229V12.8876H68.5676V26.6293H75.0272Z" fill="white"/>
<path d="M82.5763 27.3309C83.0904 27.3507 83.6022 27.2519 84.0721 27.0422C84.5419 26.8324 84.9572 26.5174 85.2857 26.1214L87.8021 27.5728C86.6649 29.2181 84.8502 30.1616 82.5278 30.1616C78.4633 30.1616 75.8989 27.3794 75.8989 23.7744C75.8989 20.1697 78.4876 17.3876 82.2859 17.3876C85.8664 17.3876 88.4067 20.2179 88.4067 23.7744C88.4048 24.2046 88.3643 24.6338 88.2858 25.0567H79.1649C79.6004 26.6536 80.9309 27.3309 82.5763 27.3309ZM85.2857 22.6373C85.1669 21.9356 84.7972 21.3009 84.2454 20.8514C83.6935 20.4019 82.9972 20.1683 82.2859 20.194C80.6166 20.194 79.4795 21.0889 79.1165 22.6373H85.2857Z" fill="white"/>
<path d="M101.884 22.3955V29.8227H98.7628V22.7825C98.7628 21.1374 97.7709 20.2906 96.3677 20.2906C94.8433 20.2906 93.7061 21.1859 93.7061 23.2907V29.8227H90.5854V17.7261H93.7061V19.0811C94.432 17.9922 95.69 17.3876 97.3111 17.3876C99.8757 17.3876 101.884 19.1778 101.884 22.3955Z" fill="white"/>
<path d="M116.836 12.8876V29.8227H113.715V28.3952C112.844 29.5081 111.561 30.1615 109.795 30.1615C106.553 30.1615 103.892 27.3794 103.892 23.7744C103.892 20.1697 106.553 17.3875 109.795 17.3875C111.561 17.3875 112.844 18.0406 113.715 19.1535V12.8876H116.836ZM113.715 23.7744C113.715 21.7423 112.287 20.363 110.376 20.363C108.44 20.363 107.013 21.7423 107.013 23.7744C107.013 25.8067 108.44 27.1857 110.376 27.1857C112.287 27.1857 113.715 25.8067 113.715 23.7744Z" fill="white"/>
<path d="M119.328 14.3632C119.326 13.9818 119.437 13.6082 119.647 13.29C119.858 12.9718 120.158 12.7234 120.51 12.5763C120.862 12.4292 121.249 12.39 121.624 12.4638C121.998 12.5376 122.342 12.721 122.612 12.9908C122.881 13.2605 123.065 13.6043 123.139 13.9785C123.212 14.3528 123.173 14.7405 123.026 15.0925C122.879 15.4444 122.631 15.7447 122.313 15.9552C121.995 16.1656 121.621 16.2767 121.24 16.2744C120.734 16.2693 120.251 16.0663 119.894 15.709C119.536 15.3517 119.333 14.8685 119.328 14.3632ZM119.691 17.7261H122.812V29.8227H119.691V17.7261Z" fill="white"/>
<path d="M136.966 22.3955V29.8227H133.845V22.7825C133.845 21.1374 132.853 20.2906 131.45 20.2906C129.926 20.2906 128.788 21.1859 128.788 23.2907V29.8227H125.667V17.7261H128.788V19.0811C129.514 17.9922 130.772 17.3876 132.393 17.3876C134.958 17.3876 136.966 19.1778 136.966 22.3955Z" fill="white"/>
<path d="M151.942 17.7261V29.2421C151.942 33.2098 148.821 35 145.628 35C143.039 35 140.958 34.0084 139.894 32.0485L142.555 30.5243C143.063 31.4681 143.862 32.2179 145.725 32.2179C147.684 32.2179 148.894 31.1535 148.894 29.2421V27.9358C148.047 29.0729 146.74 29.7745 145.023 29.7745C141.587 29.7745 138.999 26.9921 138.999 23.5811C138.999 20.194 141.587 17.3876 145.023 17.3876C146.74 17.3876 148.047 18.0892 148.894 19.2263V17.7261H151.942ZM148.894 23.581C148.894 21.6696 147.466 20.2906 145.507 20.2906C143.547 20.2906 142.12 21.6696 142.12 23.581C142.12 25.5164 143.547 26.8954 145.507 26.8954C147.466 26.8954 148.894 25.5164 148.894 23.581Z" fill="white"/>
<path d="M64.6437 0.747902C64.0743 0.699244 63.5016 0.705138 62.9334 0.765504C62.5688 0.794743 62.2213 0.931996 61.9352 1.15973C62.1815 0.888607 62.4065 0.598807 62.6082 0.292932C61.8542 0.567747 61.0579 0.707933 60.2555 0.707095C56.2391 0.550551 53.1133 1.57427 51.0547 3.62057C50.9287 3.74583 50.675 4.17755 50.6464 4.20226C50.6184 4.22652 50.9685 2.94283 50.9394 2.96619C47.6794 5.57879 47.1746 7.35754 47.2428 9.15937C47.255 9.47948 47.4086 9.98968 47.4139 10.4293C47.2697 10.1117 47.0426 9.83899 46.7563 9.63976C47.0191 9.98834 47.1981 10.3928 47.2794 10.8217C47.2941 10.9425 47.3117 11.1423 47.3292 11.3627C47.9229 10.5562 48.5697 9.79027 49.2653 9.06983C50.5668 7.72536 51.9883 5.86957 55.8018 4.54759C58.3459 3.66567 60.2438 3.58546 63.2687 2.69174C65.2588 2.10376 66.8493 1.53175 67.9301 0.927408C68.0232 0.614921 68.0974 0.295751 68.1668 0C66.9433 0.693642 66.049 0.80645 64.6437 0.747902Z" fill="#BE1E2D"/>
<path d="M67.9092 0.994263C66.919 1.64689 65.4906 2.18445 63.6809 2.84188C60.7025 3.92388 58.4009 4.09763 55.9819 4.98741C52.4604 6.28273 51.1163 7.88658 49.5776 9.36594C48.2246 10.6759 47.0161 12.1275 45.9731 13.6956L46.1674 13.7445C46.5027 13.3615 47.0336 12.7111 47.7836 11.9273C47.8581 11.8791 47.9536 11.6624 48.2736 11.8168C48.348 11.8429 48.4154 11.8857 48.4707 11.9419C48.526 11.9981 48.5677 12.0662 48.5927 12.1409C48.6198 12.2265 48.6266 12.3172 48.6125 12.4058C48.6654 12.3087 48.684 12.1965 48.6653 12.0875C48.6437 11.9706 48.5916 11.8615 48.5144 11.7711C48.4372 11.6807 48.3376 11.6123 48.2255 11.5727C48.6995 11.4198 49.2022 11.3773 49.6951 11.4483C49.4256 11.2937 49.1225 11.2066 48.8119 11.1948C49.8586 10.3019 51.1389 9.72735 52.5017 9.53883C52.2417 9.40944 51.5263 9.15417 51.5263 9.15417C51.5263 9.15417 52.5005 9.05985 52.6281 9.01823C53.6148 8.70051 54.6432 8.53091 55.6796 8.51497C56.8081 8.46612 57.9163 8.19914 58.9432 7.72879C58.9797 7.71017 56.3463 7.37826 56.3874 7.3772C57.8262 7.34014 59.3049 7.58052 60.602 7.23851C60.6252 7.23241 59.226 6.55815 59.226 6.55815C59.6633 6.68346 60.1082 6.78063 60.558 6.84908C60.856 6.8843 61.8934 6.91679 62.5875 6.4518C62.2016 6.31352 61.7256 6.15715 61.7256 6.15715C62.1085 6.24564 62.5024 6.27576 62.8943 6.2465C62.5242 6.03589 61.5115 5.58032 61.5115 5.58032C61.8988 5.76356 62.308 5.89671 62.729 5.97655C63.2744 5.95116 63.8007 5.76749 64.2435 5.44796C64.2582 5.43774 63.2711 4.98288 62.8175 4.77476C63.1879 4.93672 63.9328 5.22722 64.3626 5.15119C64.7034 5.08423 65.0151 4.91336 65.2549 4.66206C65.0389 4.5454 64.8152 4.44376 64.5853 4.35784C64.5853 4.35784 65.371 4.55955 65.3872 4.54498C65.4213 4.5143 65.4552 4.4834 65.489 4.45227C65.5181 4.42538 64.2943 4.12405 64.3232 4.09685C64.3517 4.06996 65.6327 4.31723 65.6609 4.29002C66.0085 3.95567 66.331 3.59612 66.6257 3.21431C66.6489 3.18416 65.6251 3.06181 65.6251 3.06181C65.6251 3.06181 66.7292 3.07721 66.7463 3.054C66.7998 2.98112 66.8727 2.87697 66.8727 2.87697L65.7392 2.70935C66.1042 2.76826 66.4783 2.73059 66.8242 2.60007C67.3885 2.32424 67.6977 1.6808 67.9092 0.994263Z" fill="white"/>
</svg>
