<svg width="152" height="36" viewBox="0 0 152 36" fill="none" xmlns="http://www.w3.org/2000/svg">
<path d="M11.3709 18.4539C11.3872 19.1573 11.2607 19.8567 10.999 20.5098C10.7373 21.1629 10.3458 21.7562 9.84831 22.2537C9.35079 22.7512 8.75753 23.1427 8.10441 23.4044C7.45129 23.6661 6.75188 23.7926 6.04846 23.7763H1.69354V30.0665H0V13.1314H6.04846C6.75242 13.1131 7.45274 13.2382 8.10679 13.4992C8.76083 13.7602 9.35491 14.1515 9.85285 14.6495C10.3508 15.1474 10.7422 15.7415 11.0032 16.3956C11.2641 17.0496 11.3893 17.7499 11.3709 18.4539ZM9.6774 18.4539C9.6774 16.2763 8.15327 14.7283 6.04846 14.7283H1.69354V22.1795H6.04846C8.15327 22.1795 9.6774 20.6072 9.6774 18.4539Z" fill="#58595B"/>
<path d="M25.0651 17.9697V30.0663H23.4684V27.6957C22.9555 28.5259 22.235 29.208 21.378 29.6746C20.5209 30.1413 19.557 30.3764 18.5814 30.3567C16.9171 30.3311 15.3297 29.652 14.1618 28.4661C12.994 27.2801 12.3394 25.6825 12.3394 24.018C12.3394 22.3536 12.994 20.7559 14.1618 19.5699C15.3297 18.384 16.9171 17.7049 18.5814 17.6794C19.5571 17.6597 20.521 17.8949 21.3781 18.3616C22.2351 18.8284 22.9556 19.5106 23.4684 20.3409V17.9697H25.0651ZM23.4684 24.0183C23.4636 23.0767 23.18 22.1576 22.6534 21.377C22.1268 20.5964 21.3808 19.9893 20.5095 19.6323C19.6382 19.2752 18.6806 19.1843 17.7577 19.3709C16.8348 19.5576 15.9878 20.0134 15.3236 20.6809C14.6595 21.3484 14.208 22.1977 14.026 23.1216C13.8441 24.0454 13.9399 25.0025 14.3013 25.872C14.6628 26.7415 15.2737 27.4844 16.0569 28.007C16.8402 28.5297 17.7607 28.8086 18.7023 28.8086C19.332 28.8148 19.9566 28.695 20.5392 28.4562C21.1219 28.2174 21.6509 27.8644 22.095 27.418C22.5391 26.9716 22.8895 26.4408 23.1253 25.857C23.3612 25.2731 23.4778 24.6479 23.4684 24.0183H23.4684Z" fill="#58595B"/>
<path d="M31.3807 19.5185V26.8491C31.3807 28.9294 32.5178 28.7603 34.8646 28.6633V30.0665C31.5984 30.5505 29.784 29.7519 29.784 26.8491V19.5185H27.2437V17.9698H29.784V15.0668L31.3807 14.5828V17.9698H34.8646V19.5185H31.3807Z" fill="#58595B"/>
<path d="M42.9457 17.7764V19.3247C41.0101 19.3247 39.1231 20.3409 39.1231 23.3407V30.0664H37.5264V17.9697H39.1231V19.9779C39.9698 18.2843 41.3973 17.7764 42.9457 17.7764Z" fill="#58595B"/>
<path d="M44.7607 14.2443C44.7607 14.0146 44.8288 13.79 44.9563 13.599C45.0839 13.408 45.2653 13.2592 45.4775 13.1712C45.6896 13.0833 45.9231 13.0603 46.1484 13.105C46.3737 13.1498 46.5806 13.2604 46.7431 13.4228C46.9055 13.5852 47.0161 13.7921 47.061 14.0174C47.1058 14.2426 47.0828 14.4761 46.995 14.6883C46.9071 14.9006 46.7582 15.0819 46.5673 15.2096C46.3763 15.3372 46.1518 15.4053 45.9221 15.4053C45.6142 15.4052 45.3189 15.2829 45.1011 15.0652C44.8833 14.8475 44.7609 14.5522 44.7607 14.2443ZM45.1237 17.9699H46.7204V30.0665H45.1237V17.9699Z" fill="#58595B"/>
<path d="M62.1071 17.9697V30.0663H60.5104V27.6957C59.9975 28.5259 59.277 29.208 58.42 29.6746C57.5629 30.1413 56.599 30.3764 55.6234 30.3567C53.9591 30.3311 52.3717 29.652 51.2038 28.4661C50.036 27.2801 49.3813 25.6825 49.3813 24.018C49.3813 22.3536 50.036 20.7559 51.2038 19.5699C52.3717 18.384 53.9591 17.7049 55.6234 17.6794C56.5991 17.6597 57.563 17.8949 58.4201 18.3616C59.2771 18.8284 59.9976 19.5106 60.5104 20.3409V17.9697H62.1071ZM60.5104 24.0183C60.5056 23.0767 60.222 22.1576 59.6954 21.377C59.1688 20.5964 58.4228 19.9893 57.5515 19.6323C56.6802 19.2752 55.7226 19.1843 54.7997 19.3709C53.8767 19.5576 53.0298 20.0134 52.3656 20.6809C51.7015 21.3484 51.25 22.1977 51.068 23.1215C50.8861 24.0454 50.9819 25.0025 51.3433 25.872C51.7048 26.7414 52.3157 27.4844 53.0989 28.007C53.8822 28.5297 54.8027 28.8086 55.7443 28.8086C56.374 28.8148 56.9985 28.695 57.5812 28.4562C58.1639 28.2174 58.6929 27.8644 59.137 27.418C59.5811 26.9716 59.9315 26.4408 60.1673 25.857C60.4032 25.2731 60.5198 24.6479 60.5104 24.0183Z" fill="#58595B"/>
<path d="M75.0272 27.1292V30.3226H65.229V13.3875H68.5676V27.1292H75.0272Z" fill="#58595B"/>
<path d="M82.5763 27.8308C83.0904 27.8506 83.6022 27.7518 84.0721 27.5421C84.5419 27.3323 84.9572 27.0173 85.2857 26.6212L87.8021 28.0726C86.6649 29.718 84.8502 30.6614 82.5278 30.6614C78.4633 30.6614 75.8989 27.8793 75.8989 24.2743C75.8989 20.6696 78.4876 17.8875 82.2859 17.8875C85.8664 17.8875 88.4067 20.7178 88.4067 24.2743C88.4048 24.7045 88.3643 25.1336 88.2858 25.5566H79.1649C79.6004 27.1534 80.9309 27.8308 82.5763 27.8308ZM85.2857 23.1372C85.1669 22.4355 84.7972 21.8008 84.2454 21.3513C83.6935 20.9018 82.9972 20.6682 82.2859 20.6939C80.6166 20.6939 79.4795 21.5888 79.1165 23.1372H85.2857Z" fill="#58595B"/>
<path d="M101.884 22.8953V30.3226H98.7628V23.2823C98.7628 21.6373 97.7709 20.7905 96.3677 20.7905C94.8433 20.7905 93.7061 21.6858 93.7061 23.7906V30.3226H90.5854V18.226H93.7061V19.581C94.432 18.4921 95.69 17.8875 97.3111 17.8875C99.8757 17.8874 101.884 19.6777 101.884 22.8953Z" fill="#58595B"/>
<path d="M116.836 13.3875V30.3226H113.715V28.8951C112.844 30.008 111.561 30.6614 109.795 30.6614C106.553 30.6614 103.892 27.8792 103.892 24.2743C103.892 20.6696 106.553 17.8874 109.795 17.8874C111.561 17.8874 112.844 18.5405 113.715 19.6534V13.3875H116.836ZM113.715 24.2743C113.715 22.2422 112.287 20.8629 110.376 20.8629C108.44 20.8629 107.013 22.2422 107.013 24.2743C107.013 26.3066 108.44 27.6856 110.376 27.6856C112.287 27.6856 113.715 26.3066 113.715 24.2743Z" fill="#58595B"/>
<path d="M119.328 14.8632C119.326 14.4818 119.437 14.1082 119.647 13.79C119.858 13.4718 120.158 13.2234 120.51 13.0763C120.862 12.9292 121.249 12.89 121.624 12.9638C121.998 13.0376 122.342 13.221 122.612 13.4908C122.881 13.7605 123.065 14.1043 123.139 14.4785C123.212 14.8528 123.173 15.2405 123.026 15.5925C122.879 15.9444 122.631 16.2447 122.313 16.4552C121.995 16.6656 121.621 16.7767 121.24 16.7744C120.734 16.7693 120.251 16.5663 119.894 16.209C119.536 15.8517 119.333 15.3685 119.328 14.8632ZM119.691 18.2261H122.812V30.3227H119.691V18.2261Z" fill="#58595B"/>
<path d="M136.966 22.8953V30.3226H133.845V23.2823C133.845 21.6373 132.853 20.7905 131.45 20.7905C129.926 20.7905 128.788 21.6858 128.788 23.7906V30.3226H125.667V18.226H128.788V19.581C129.514 18.4921 130.772 17.8875 132.393 17.8875C134.958 17.8874 136.966 19.6777 136.966 22.8953Z" fill="#58595B"/>
<path d="M151.942 18.226V29.7419C151.942 33.7097 148.821 35.4999 145.628 35.4999C143.039 35.4999 140.958 34.5083 139.894 32.5483L142.555 31.0242C143.063 31.968 143.862 32.7178 145.725 32.7178C147.684 32.7178 148.894 31.6534 148.894 29.7419V28.4357C148.047 29.5728 146.74 30.2744 145.023 30.2744C141.587 30.2744 138.999 27.492 138.999 24.0809C138.999 20.6938 141.587 17.8875 145.023 17.8875C146.74 17.8875 148.047 18.589 148.894 19.7262V18.226H151.942ZM148.894 24.0809C148.894 22.1695 147.466 20.7905 145.507 20.7905C143.547 20.7905 142.12 22.1695 142.12 24.0809C142.12 26.0163 143.547 27.3953 145.507 27.3953C147.466 27.3953 148.894 26.0163 148.894 24.0809Z" fill="#58595B"/>
<path d="M64.6437 1.2479C64.0743 1.19924 63.5016 1.20514 62.9334 1.2655C62.5688 1.29474 62.2213 1.432 61.9352 1.65973C62.1815 1.38861 62.4065 1.09881 62.6082 0.792932C61.8542 1.06775 61.0579 1.20793 60.2555 1.20709C56.2391 1.05055 53.1133 2.07427 51.0547 4.12057C50.9287 4.24583 50.675 4.67755 50.6464 4.70226C50.6184 4.72652 50.9685 3.44283 50.9394 3.46619C47.6794 6.07879 47.1746 7.85754 47.2428 9.65937C47.255 9.97948 47.4086 10.4897 47.4139 10.9293C47.2697 10.6117 47.0426 10.339 46.7563 10.1398C47.0191 10.4883 47.1981 10.8928 47.2794 11.3217C47.2941 11.4425 47.3117 11.6423 47.3292 11.8627C47.9229 11.0562 48.5697 10.2903 49.2653 9.56983C50.5668 8.22536 51.9883 6.36957 55.8018 5.04759C58.3459 4.16567 60.2438 4.08546 63.2687 3.19174C65.2588 2.60376 66.8493 2.03175 67.9301 1.42741C68.0232 1.11492 68.0974 0.795751 68.1668 0.5C66.9433 1.19364 66.049 1.30645 64.6437 1.2479Z" fill="#BE1E2D"/>
<path d="M67.9092 1.49414C66.919 2.14677 65.4906 2.68433 63.6809 3.34175C60.7025 4.42376 58.4009 4.59751 55.9819 5.48728C52.4604 6.7826 51.1163 8.38646 49.5776 9.86582C48.2246 11.1758 47.0161 12.6274 45.9731 14.1955L46.1674 14.2444C46.5027 13.8614 47.0336 13.211 47.7836 12.4272C47.8581 12.3789 47.9536 12.1622 48.2736 12.3167C48.348 12.3428 48.4154 12.3856 48.4707 12.4418C48.526 12.498 48.5677 12.566 48.5927 12.6408C48.6198 12.7264 48.6266 12.8171 48.6125 12.9057C48.6654 12.8085 48.684 12.6964 48.6653 12.5874C48.6437 12.4705 48.5916 12.3614 48.5144 12.271C48.4372 12.1806 48.3376 12.1122 48.2255 12.0725C48.6995 11.9197 49.2022 11.8771 49.6951 11.9482C49.4256 11.7935 49.1225 11.7065 48.8119 11.6946C49.8586 10.8018 51.1389 10.2272 52.5017 10.0387C52.2417 9.90932 51.5263 9.65405 51.5263 9.65405C51.5263 9.65405 52.5005 9.55973 52.6281 9.5181C53.6148 9.20039 54.6432 9.03079 55.6796 9.01484C56.8081 8.966 57.9163 8.69902 58.9432 8.22866C58.9797 8.21004 56.3463 7.87814 56.3874 7.87707C57.8262 7.84002 59.3049 8.0804 60.602 7.73839C60.6252 7.73229 59.226 7.05803 59.226 7.05803C59.6633 7.18334 60.1082 7.28051 60.558 7.34895C60.856 7.38418 61.8934 7.41667 62.5875 6.95168C62.2016 6.8134 61.7256 6.65703 61.7256 6.65703C62.1085 6.74551 62.5024 6.77564 62.8943 6.74638C62.5242 6.53577 61.5115 6.0802 61.5115 6.0802C61.8988 6.26344 62.308 6.39659 62.729 6.47643C63.2744 6.45104 63.8007 6.26737 64.2435 5.94784C64.2582 5.93761 63.2711 5.48276 62.8175 5.27463C63.1879 5.4366 63.9328 5.72709 64.3626 5.65107C64.7034 5.58411 65.0151 5.41324 65.2549 5.16194C65.0389 5.04528 64.8152 4.94363 64.5853 4.85772C64.5853 4.85772 65.371 5.05943 65.3872 5.04485C65.4213 5.01418 65.4552 4.98328 65.489 4.95215C65.5181 4.92526 64.2943 4.62393 64.3232 4.59673C64.3517 4.56983 65.6327 4.8171 65.6609 4.7899C66.0085 4.45554 66.331 4.096 66.6257 3.71419C66.6489 3.68404 65.6251 3.56169 65.6251 3.56169C65.6251 3.56169 66.7292 3.57708 66.7463 3.55387C66.7998 3.481 66.8727 3.37685 66.8727 3.37685L65.7392 3.20923C66.1042 3.26814 66.4783 3.23046 66.8242 3.09995C67.3885 2.82412 67.6977 2.18067 67.9092 1.49414Z" fill="#58595B"/>
</svg>
