<?xml version="1.0" encoding="UTF-8"?>
<svg width="16px" height="16px" viewBox="0 0 16 16" version="1.1" xmlns="http://www.w3.org/2000/svg" xmlns:xlink="http://www.w3.org/1999/xlink">
    <!-- Generator: sketchtool 52.5 (67469) - http://www.bohemiancoding.com/sketch -->
    <title>8CA64F06-EDB6-4C23-B359-DB816175AA05</title>
    <desc>Created with sketchtool.</desc>
    <g id="Portal-(New)" stroke="none" stroke-width="1" fill="none" fill-rule="evenodd">
        <g id="Provider-Portal---Procedures-2" transform="translate(-1400.000000, -23.000000)" fill="#5A7DA1" fill-rule="nonzero">
            <g id="Group-7" transform="translate(1072.000000, 0.000000)">
                <g id="Group-5">
                    <g id="Panel-/-Right">
                        <g id="Close-Button" transform="translate(328.000000, 23.000000)">
                            <path d="M15.6990899,15.707242 C15.5116103,15.8946877 15.2572876,16 14.9920974,16 C14.7269072,16 14.4725844,15.8946877 14.2851048,15.707242 L7.99118032,9.41701599 L1.70305022,15.7018004 C1.31198909,16.0884915 0.681820802,16.0868091 0.292832385,15.6980355 C-0.0961560313,15.3092619 -0.097817139,14.6794639 0.289115087,14.2886462 L6.57744499,8.0040615 L0.290263978,1.72057505 C-0.0905556952,1.32883118 -0.0860720025,0.704073916 0.300331054,0.317829694 C0.686734111,-0.0684145276 1.31185792,-0.0730059569 1.7038994,0.30752072 L7.99133017,6.59095724 L14.2840059,0.302029253 C14.5354379,0.0440513734 14.9063233,-0.058743845 15.2547892,0.0329653724 C15.603255,0.12467459 15.8753799,0.396697227 15.9670692,0.744977737 C16.0587585,1.09325825 15.9558242,1.46390396 15.6976413,1.71513351 L9.40531526,8.0040615 L15.6992398,14.2942875 C15.8867392,14.4816557 15.9920646,14.7358022 15.9920365,15.0007957 C15.9920084,15.2657893 15.8866291,15.5199135 15.6990899,15.707242 Z" id="Shape"></path>
                        </g>
                    </g>
                </g>
            </g>
        </g>
    </g>
</svg>