<?xml version="1.0" encoding="UTF-8"?>
<svg width="10px" height="9px" viewBox="0 0 10 9" version="1.1" xmlns="http://www.w3.org/2000/svg" xmlns:xlink="http://www.w3.org/1999/xlink">
    <!-- Generator: sketchtool 52.5 (67469) - http://www.bohemiancoding.com/sketch -->
    <title>994B3826-CBE3-493E-A88E-1D38E859E509</title>
    <desc>Created with sketchtool.</desc>
    <g id="Portal-(New)" stroke="none" stroke-width="1" fill="none" fill-rule="evenodd">
        <g id="Provider-Portal---Settings" transform="translate(-762.000000, -367.000000)" fill="#107189" fill-rule="nonzero">
            <g id="Group-4" transform="translate(472.000000, 143.000000)">
                <g id="Light-UI-/-Forms-/-Filled-Copy-2" transform="translate(0.000000, 192.000000)">
                    <g id="Checkmark" transform="translate(290.000000, 32.000000)">
                        <path d="M0.954133924,4.20883645 L3.53090146,6.5 L9.04590525,0.214107935 C9.13480525,0.0930585045 9.27549103,0.0154543823 9.43030998,0.0020652404 C9.58512893,-0.0113239015 9.73827457,0.0408689223 9.84875958,0.144675023 C10.0318862,0.327540157 10.0508833,0.608593008 9.89387736,0.812170408 L4.06649743,8.73504281 C3.94426501,8.90108175 3.74430737,9 3.53090146,9 C3.31749556,9 3.11753792,8.90108175 2.9953055,8.73504281 L0.106161817,4.8069489 C-0.0508887966,4.60335181 -0.0319022486,4.3222491 0.151253275,4.13935357 C0.261750301,4.03555191 0.414904686,3.98336742 0.569727985,3.99676613 C0.724551283,4.01016485 0.865237098,4.08777886 0.954133924,4.20883645 Z"></path>
                    </g>
                </g>
            </g>
        </g>
    </g>
</svg>