<?xml version="1.0" encoding="UTF-8"?>
<svg width="8px" height="7px" viewBox="0 0 8 7" version="1.1" xmlns="http://www.w3.org/2000/svg" xmlns:xlink="http://www.w3.org/1999/xlink">
    <!-- Generator: sketchtool 52.5 (67469) - http://www.bohemiancoding.com/sketch -->
    <title>9AC55A4E-9125-4047-BE6C-8F2766EB2557</title>
    <desc>Created with sketchtool.</desc>
    <g id="Portal-(New)" stroke="none" stroke-width="1" fill="none" fill-rule="evenodd">
        <g id="Provider-Portal---8" transform="translate(-1347.000000, -259.000000)" fill="#E93064" fill-rule="nonzero">
            <g id="Table" transform="translate(287.000000, 103.000000)">
                <g id="Stacked-Group-2" transform="translate(16.000000, 64.000000)">
                    <g id="Group-8-Copy-2" transform="translate(1018.000000, 0.000000)">
                        <g id="Stacked-Group" transform="translate(25.000000, 43.000000)">
                            <g id="Checkmark-Copy-7" transform="translate(0.000000, 48.000000)">
                                <path d="M4.29289322,4.5 L1.64644661,1.85355339 C1.45118446,1.65829124 1.45118446,1.34170876 1.64644661,1.14644661 C1.84170876,0.951184464 2.15829124,0.951184464 2.35355339,1.14644661 L5,3.79289322 L7.64644661,1.14644661 C7.84170876,0.951184464 8.15829124,0.951184464 8.35355339,1.14644661 C8.54881554,1.34170876 8.54881554,1.65829124 8.35355339,1.85355339 L5.70710678,4.5 L8.35355339,7.14644661 C8.54881554,7.34170876 8.54881554,7.65829124 8.35355339,7.85355339 C8.15829124,8.04881554 7.84170876,8.04881554 7.64644661,7.85355339 L5,5.20710678 L2.35355339,7.85355339 C2.15829124,8.04881554 1.84170876,8.04881554 1.64644661,7.85355339 C1.45118446,7.65829124 1.45118446,7.34170876 1.64644661,7.14644661 L4.29289322,4.5 Z" id="Combined-Shape"></path>
                            </g>
                        </g>
                    </g>
                </g>
            </g>
        </g>
    </g>
</svg>