<?xml version="1.0" encoding="UTF-8"?>
<svg width="16px" height="16px" viewBox="0 0 16 16" version="1.1" xmlns="http://www.w3.org/2000/svg" xmlns:xlink="http://www.w3.org/1999/xlink">
    <!-- Generator: sketchtool 54.1 (76490) - https://sketchapp.com -->
    <title>9ED0E672-4EAD-496E-A289-43C9EC8B8397</title>
    <desc>Created with sketchtool.</desc>
    <g id="Portal-(New)" stroke="none" stroke-width="1" fill="none" fill-rule="evenodd">
        <g id="Dashboard" transform="translate(-1347.000000, -238.000000)" fill="#5A7DA1" fill-rule="nonzero">
            <g id="Group-2" transform="translate(272.000000, 222.000000)">
                <g id="Group-10" transform="translate(28.000000, 0.000000)">
                    <g id="Filter-Bar" transform="translate(16.000000, 0.000000)">
                        <g id="Group-2" transform="translate(824.000000, 0.000000)">
                            <g id="Icon-/-24px-/-Search" transform="translate(207.000000, 16.000000)">
                                <path d="M6.62606006,6.3332741e-06 C9.12945853,-0.00344779261 11.420452,1.40623019 12.5457418,3.64246332 C13.6710316,5.87869645 13.4379112,8.55852811 11.9433834,10.5668614 L15.5202668,13.5922748 C15.9114399,13.9260989 16.082206,14.4511886 15.9622227,14.9512474 C15.8422393,15.4513063 15.4518035,15.8417421 14.9517446,15.9617255 C14.4516858,16.0817088 13.926596,15.9109427 13.592772,15.5197696 L10.5666263,11.9434442 C8.255067,13.6566523 5.10179457,13.6813713 2.76366081,12.0046128 C0.425527054,10.3278543 -0.562494091,7.33326716 0.318742058,4.59432369 C1.19997821,1.85538023 3.74884146,-0.00123881078 6.62606006,6.3332741e-06 Z M6.62606001,11.8565771 C9.5149732,11.8565771 11.8569001,9.51465022 11.8569001,6.62573703 C11.8569001,3.73682384 9.5149732,1.39489698 6.62606001,1.39489698 C3.73714682,1.39489698 1.39521996,3.73682384 1.39521996,6.62573703 C1.39523922,9.5146366 3.73716044,11.8565422 6.62606001,11.8565422 L6.62606001,11.8565771 Z" id="Shape"></path>
                            </g>
                        </g>
                    </g>
                </g>
            </g>
        </g>
    </g>
</svg>