<?xml version="1.0" encoding="UTF-8"?>
<svg width="13px" height="16px" viewBox="0 0 13 16" version="1.1" xmlns="http://www.w3.org/2000/svg" xmlns:xlink="http://www.w3.org/1999/xlink">
    <!-- Generator: sketchtool 54.1 (76490) - https://sketchapp.com -->
    <title>61B6A246-E718-4308-9FFF-E266F4DCC473@1x</title>
    <desc>Created with sketchtool.</desc>
    <g id="Practice-Portal" stroke="none" stroke-width="1" fill="none" fill-rule="evenodd">
        <g id="PFi-Archive" transform="translate(-30.000000, -181.000000)" fill="#107189">
            <g id="New-/-Sidebar">
                <g id="Content" transform="translate(16.000000, 87.000000)">
                    <g id="PFi-Check" transform="translate(14.000000, 87.000000)">
                        <path d="M0.355570545,21.7262402 C0.24180886,18.6153543 -0.828619887,15.2303716 1.40500301,12.4561898 C4.36776959,9.07006176 9.5855371,7.51595498 11.6424095,7.01280766 C12.002782,6.92462326 12.3509386,7.30942789 12.1592998,7.62704441 C10.9575488,9.6171104 9.67982951,14.7902131 8.07762214,17.1395064 C5.88026556,20.3610999 3.40117701,20.0770775 1.81538493,22.9131028 C1.72261953,23.0787826 1.46837361,22.9886895 1.50044066,22.8012499 C1.87837378,20.5966401 3.44622359,16.8279979 5.03125217,14.4248777 C6.41815219,12.3233406 7.8684228,10.8192431 8.81287384,9.94770644 C8.86822768,9.89655186 8.79645857,9.81103972 8.73652372,9.85646805 C7.50766846,10.7909936 6.49984682,11.3670553 4.69989263,13.5132573 C2.54452862,16.082439 1.41607378,20.1141073 0.722051143,21.7926648 C0.643792266,21.9816313 0.363205558,21.9304767 0.355570545,21.7262402 Z" id="⤵️"></path>
                    </g>
                </g>
            </g>
        </g>
    </g>
</svg>