<?xml version="1.0" encoding="UTF-8"?>
<svg width="16px" height="16px" viewBox="0 0 16 16" version="1.1" xmlns="http://www.w3.org/2000/svg" xmlns:xlink="http://www.w3.org/1999/xlink">
    <!-- Generator: sketchtool 54.1 (76490) - https://sketchapp.com -->
    <title>89FF6AA2-FD04-45AA-BFDA-E207776CD54F@1x</title>
    <desc>Created with sketchtool.</desc>
    <g id="Practice-Portal" stroke="none" stroke-width="1" fill="none" fill-rule="evenodd">
        <g id="PFi-Archive" transform="translate(-28.000000, -150.000000)" fill="#107189">
            <g id="New-/-Sidebar">
                <g id="Content" transform="translate(16.000000, 87.000000)">
                    <g id="Dashboard" transform="translate(12.000000, 56.000000)">
                        <path d="M8,23 C3.581722,23 5.92118946e-16,19.418278 0,15 C-5.92118946e-16,10.581722 3.581722,7 8,7 C12.418278,7 16,10.581722 16,15 C16,17.1217319 15.1571453,19.1565632 13.6568542,20.6568542 C12.1565632,22.1571453 10.1217319,23 8,23 Z M3.66666667,19 C3.66666667,19.3681898 3.9651435,19.6666667 4.33333333,19.6666667 L11.6666667,19.6666667 C12.0348565,19.6666667 12.3333333,19.3681898 12.3333333,19 L12.3333333,18.3333333 C12.3333333,17.9651435 12.0348565,17.6666667 11.6666667,17.6666667 L4.33333333,17.6666667 C3.9651435,17.6666667 3.66666667,17.9651435 3.66666667,18.3333333 L3.66666667,19 Z M8,8.33333333 C4.31810167,8.33333333 1.33333333,11.3181017 1.33333333,15 L1.33333333,15.0066667 C1.34088127,15.3761486 1.64462862,15.6706013 2.01416667,15.6666667 L6.54383333,15.6666667 L5.68016667,10.6113333 C5.63152458,10.3622865 5.77093674,10.1147801 6.00913333,10.0273 C6.24735358,9.94923784 6.50643452,10.0606766 6.6136,10.2873 L9.1485,15.6666333 L13.9857333,15.6666333 C14.3552739,15.6705324 14.6590288,15.3761156 14.6666667,15.0066333 L14.6666667,14.9999667 C14.6666483,11.3180814 11.6818853,8.33333333 8,8.33333333 L8,8.33333333 Z" id="⤵️"></path>
                    </g>
                </g>
            </g>
        </g>
    </g>
</svg>