<?xml version="1.0" encoding="UTF-8"?>
<svg width="238px" height="80px" viewBox="0 0 238 80" version="1.1" xmlns="http://www.w3.org/2000/svg" xmlns:xlink="http://www.w3.org/1999/xlink">
    <!-- Generator: sketchtool 52.5 (67469) - http://www.bohemiancoding.com/sketch -->
    <title>792D0E92-4A06-475A-8086-75587D5CEBCD@1x</title>
    <desc>Created with sketchtool.</desc>
    <g id="Application---Website-(New)" stroke="none" stroke-width="1" fill="none" fill-rule="evenodd">
        <g id="100_Search-Provider" transform="translate(-601.000000, -122.000000)" fill="#FFFFFF">
            <g id="Logo" transform="translate(601.000000, 122.000000)">
                <g id="Group-11">
                    <g id="Page-1" transform="translate(0.000000, 35.555556)">
                        <path d="M4.35812512,19.6656672 L11.7436089,19.6656672 C15.1731307,19.6656672 17.7763276,18.9895561 19.5526525,17.6378894 C21.3278829,16.2856671 22.2160453,14.3190004 22.2160453,11.7373337 C22.2160453,9.0334447 21.2972377,7.05788909 19.4618115,5.8073335 C17.6247436,4.55844458 15.0521918,3.93344456 11.7436089,3.93344456 L4.35812512,3.93344456 L4.35812512,19.6656672 Z M-5.47235009e-05,0.122888891 L12.1064259,0.122888891 C14.286063,0.122888891 16.262676,0.359000005 18.0390009,0.829555565 C19.8142313,1.30066668 21.3377337,2.01788891 22.6095079,2.9806667 C23.8807349,3.94344449 24.8586439,5.15233339 25.5454238,6.60622229 C26.2311093,8.06066675 26.5742257,9.77122232 26.5742257,11.7373335 C26.5742257,13.7045557 26.2207119,15.4156668 25.5147787,16.8695557 C24.8082982,18.3240002 23.8199918,19.5328891 22.5487648,20.4951113 C21.2775378,21.4584447 19.7430908,22.1851113 17.9481599,22.676778 C16.1521345,23.1684447 14.1651241,23.4140002 11.985487,23.4140002 L4.35812507,23.4140002 L4.35812507,43.6328893 L-5.47235009e-05,43.6328893 L-5.47235009e-05,0.122888891 Z M49.092455,25.0189442 C49.092455,22.5383886 48.4461704,20.6878331 47.1552429,19.4678331 C45.8637682,18.2478331 43.986752,17.6378331 41.525836,17.6378331 C39.8305018,17.6378331 38.2566538,17.9444998 36.804292,18.5594998 C35.351383,19.1733886 34.1201041,19.9939442 33.11155,21.0178331 L30.8115211,18.251722 C31.9809623,17.0644998 33.5247124,16.0811664 35.442224,15.3022775 C37.3586411,14.5244998 39.5278809,14.1344998 41.9493959,14.1344998 C43.4827485,14.1344998 44.9154099,14.3494998 46.24738,14.7794998 C47.5788028,15.2100553 48.7493386,15.8556109 49.75844,16.7156109 C50.766447,17.5756109 51.553371,18.6622775 52.119212,19.9728331 C52.6834113,21.2844997 52.9668791,22.8206108 52.9668791,24.581722 L52.9668791,37.1800552 C52.9668791,38.2861663 53.00628,39.4333886 53.087818,40.6217219 C53.1682616,41.8100552 53.2892005,42.8133885 53.4511821,43.632833 L49.75844,43.632833 C49.6375011,42.9367219 49.5357154,42.1789441 49.455819,41.3589441 C49.3748282,40.5394997 49.3343329,39.7411663 49.3343329,38.9622775 L49.2139411,38.9622775 C47.921372,40.8883886 46.4591599,42.2711663 44.8245689,43.1100552 C43.190525,43.9494997 41.223215,44.3700552 38.9226389,44.3700552 C37.8330939,44.3700552 36.713451,44.2156108 35.563163,43.9083885 C34.4128749,43.6000552 33.3632781,43.0967219 32.4149197,42.397833 C31.4665614,41.6983886 30.6796374,40.7939441 30.054695,39.6839441 C29.4281109,38.5739441 29.1161869,37.2183886 29.1161869,35.6144997 C29.1161869,33.3944997 29.670536,31.637833 30.7808759,30.3433886 C31.8901213,29.0489442 33.3731283,28.082833 35.230444,27.4450553 C37.0855708,26.8078331 39.2148624,26.3961664 41.616677,26.2111664 C44.0173972,26.0267219 46.5095056,25.9333886 49.092455,25.9333886 L49.092455,25.0189442 Z M47.8819702,29.2522775 C46.1866361,29.2522775 44.4814518,29.3244997 42.7664172,29.467833 C41.0508354,29.6111664 39.4977825,29.8972775 38.1056166,30.327833 C36.7134507,30.757833 35.5724657,31.3833886 34.6853977,32.2022774 C33.7972353,33.0222774 33.3534277,34.1072774 33.3534277,35.4594996 C33.3534277,36.483944 33.5449599,37.343944 33.9285717,38.0400551 C34.3116362,38.7372773 34.8265844,39.3000551 35.4723217,39.7300551 C36.1175118,40.1606106 36.8343896,40.4672773 37.6213136,40.6522773 C38.4082375,40.8367217 39.2050117,40.928944 40.0121834,40.928944 C41.4650923,40.928944 42.756567,40.6733884 43.8866073,40.1606106 C45.0161004,39.648944 45.9644587,38.9528329 46.7311349,38.0711662 C47.4978112,37.1906107 48.0833526,36.1767218 48.4866648,35.0289441 C48.8899771,33.882833 49.092454,32.6733885 49.092454,31.4033886 L49.092454,29.2522775 L47.8819702,29.2522775 Z M75.7273679,18.3750008 L67.7366421,18.3750008 L67.7366421,35.1516683 C67.7366421,36.2177795 67.8373334,37.0983351 68.0392631,37.7944463 C68.2406456,38.4916685 68.5334163,39.0344463 68.9175753,39.4233352 C69.3006398,39.8127797 69.7542976,40.0788908 70.2796433,40.2216686 C70.8033472,40.3661131 71.3691882,40.4372242 71.9744301,40.4372242 C72.5391767,40.4372242 73.1340212,40.355002 73.760058,40.1916686 C74.3855477,40.0283353 74.9803921,39.8022242 75.5456859,39.5155575 L75.7273679,43.1411132 C75.0011871,43.4283355 74.244361,43.6422244 73.4574371,43.7861133 C72.6705131,43.9294466 71.8129958,44.0016688 70.884338,44.0016688 C70.1176617,44.0016688 69.31049,43.8983355 68.4633702,43.693891 C67.6162504,43.4894466 66.8287792,43.1005577 66.1025983,42.5266688 C65.3758702,41.9527798 64.7799313,41.1744465 64.3164232,40.1916686 C63.8523679,39.2077797 63.6208875,37.9177796 63.6208875,36.3200017 L63.6208875,18.3750008 L57.7485084,18.3750008 L57.7485084,14.8716672 L63.6208875,14.8716672 L63.6208875,6.76000013 L67.7366421,6.76000013 L67.7366421,14.8716672 L75.7273679,14.8716672 L75.7273679,18.3750008 Z M82.2040046,43.6327781 L82.2040046,14.8716667 L86.3197591,14.8716667 L86.3197591,43.6327781 L82.2040046,43.6327781 Z M123.0644,28.3920559 L123.0644,29.3137225 C123.0644,29.6426114 123.043605,29.9898337 123.003657,30.3587225 L99.5168776,30.3587225 C99.5562785,31.793167 99.8386518,33.1448337 100.36345,34.4142781 C100.887701,35.6853892 101.614429,36.7915004 102.543087,37.733167 C103.471198,38.6759448 104.560195,39.423167 105.811722,39.9759448 C107.062701,40.5292782 108.414919,40.8053893 109.867828,40.8053893 C112.006422,40.8053893 113.852793,40.3048337 115.40694,39.2998337 C116.959993,38.2970559 118.140379,37.1398337 118.947551,35.8276115 L122.035051,38.2859448 C120.340264,40.4581671 118.473098,42.0148337 116.435742,42.9565004 C114.397292,43.8987226 112.207805,44.3698337 109.867828,44.3698337 C107.769181,44.3698337 105.821572,43.9909449 104.026641,43.2331671 C102.230069,42.4753893 100.686319,41.4203893 99.3953914,40.068167 C98.1033696,38.7165004 97.084418,37.1187226 96.3385367,35.2748337 C95.5915609,33.4315003 95.2183466,31.4248337 95.2183466,29.2520559 C95.2183466,27.0809447 95.5817107,25.0737225 96.3078915,23.2298336 C97.0340724,21.3859447 98.0426265,19.7881669 99.3351956,18.4365002 C100.626123,17.084278 102.139775,16.0303891 103.87451,15.2715002 C105.609245,14.5137224 107.486261,14.1348336 109.504464,14.1348336 C111.723502,14.1348336 113.681508,14.5137224 115.376295,15.2715002 C117.071629,16.0303891 118.483496,17.0531669 119.613536,18.344278 C120.743576,19.6348336 121.601093,21.1403892 122.186088,22.8615003 C122.771082,24.5815003 123.0644,26.4259447 123.0644,28.3920559 Z M118.887353,27.0398336 C118.765867,24.3359448 117.90835,22.093167 116.314801,20.3109448 C114.720159,18.5287226 112.449681,17.6376115 109.504462,17.6376115 C108.132544,17.6376115 106.860769,17.8937226 105.691328,18.4053893 C104.519698,18.9187226 103.490896,19.6148337 102.603828,20.4953892 C101.715666,21.3765003 101.009186,22.3798337 100.484934,23.5065003 C99.9601361,24.6337225 99.6569679,25.8109447 99.5770716,27.0398336 L118.887353,27.0398336 Z M135.594054,14.8718333 C135.674498,15.6507221 135.735241,16.5107221 135.775736,17.4529444 C135.815137,18.3962777 135.835932,19.1734999 135.835932,19.7884999 L135.957418,19.7884999 C136.76459,18.1090555 138.075765,16.7462777 139.892038,15.7012777 C141.708311,14.6568333 143.624728,14.134611 145.642931,14.134611 C149.234435,14.134611 151.927925,15.2207221 153.723951,17.3912777 C155.519429,19.5634999 156.417989,22.4307222 156.417989,25.9951666 L156.417989,43.6329444 L152.301687,43.6329444 L152.301687,27.7157222 C152.301687,26.2007222 152.180748,24.8273888 151.938323,23.5984999 C151.696445,22.3696111 151.282188,21.3151666 150.697741,20.4334999 C150.111652,19.5529444 149.325276,18.8662777 148.336422,18.3751666 C147.347568,17.8834999 146.106439,17.6379444 144.613582,17.6379444 C143.524037,17.6379444 142.465137,17.8629444 141.435788,18.3134999 C140.406439,18.764611 139.488179,19.4501666 138.681554,20.3718333 C137.873835,21.2940555 137.228645,22.4612777 136.744342,23.8751666 C136.260039,25.2884999 136.017614,26.9585 136.017614,28.8835 L136.017614,43.6329444 L131.90186,43.6329444 L131.90186,21.2018333 C131.90186,20.4240555 131.881065,19.419611 131.841117,18.1907222 C131.800074,16.9618333 131.739878,15.8557221 131.659435,14.8718333 L135.594054,14.8718333 Z M179.844188,18.3750008 L171.853462,18.3750008 L171.853462,35.1516683 C171.853462,36.2177795 171.954153,37.0983351 172.156083,37.7944463 C172.357465,38.4916685 172.650236,39.0344463 173.034395,39.4233352 C173.41746,39.8127797 173.871117,40.0788908 174.396463,40.2216686 C174.920167,40.3661131 175.486008,40.4372242 176.09125,40.4372242 C176.655996,40.4372242 177.250841,40.355002 177.876878,40.1916686 C178.502367,40.0283353 179.097212,39.8022242 179.662506,39.5155575 L179.844188,43.1411132 C179.118007,43.4283355 178.361181,43.6422244 177.574257,43.7861133 C176.787333,43.9294466 175.929816,44.0016688 175.001158,44.0016688 C174.234481,44.0016688 173.42731,43.8983355 172.58019,43.693891 C171.73307,43.4894466 170.945599,43.1005577 170.219418,42.5266688 C169.49269,41.9527798 168.896751,41.1744465 168.433243,40.1916686 C167.969188,39.2077797 167.737707,37.9177796 167.737707,36.3200017 L167.737707,18.3750008 L161.865328,18.3750008 L161.865328,14.8716672 L167.737707,14.8716672 L167.737707,6.76000013 L171.853462,6.76000013 L171.853462,14.8716672 L179.844188,14.8716672 L179.844188,18.3750008 Z" id="Combined-Shape"></path>
                        <path d="M192.011091,43.632723 L186.017773,43.632723 L186.017773,0.123277778 L212.773736,0.123277778 L212.773736,5.46938898 L192.011091,5.46938898 L192.011091,18.9899448 L211.442313,18.9899448 L211.442313,24.2132782 L192.011091,24.2132782 L192.011091,43.632723 Z M219.07022,43.632777 L219.07022,14.5033333 L224.76037,14.5033333 L224.76037,43.632777 L219.07022,43.632777 Z" id="Combined-Shape"></path>
                    </g>
                    <g id="Group-10" transform="translate(82.085253, 0.000000)">
                        <g id="Group" transform="translate(0.273618, 0.000000)">
                            <path d="M7.81539803,28.4376764 C7.81868144,27.1521209 8.84474712,26.1137876 10.1121434,26.1171209 C11.3778981,26.1204542 12.4034165,27.1637875 12.4001331,28.4493431 C12.3968497,29.7376764 11.3664061,30.7732319 10.1011987,30.7698985 C8.83325519,30.7665652 7.81211462,29.7260097 7.81539803,28.4376764 Z" id="Fill-1"></path>
                            <path d="M129.860357,23.5848987 C132.508427,23.5910098 134.66125,21.4182319 134.667816,18.7287874 C134.673836,16.0448984 132.531958,13.8615649 129.884435,13.8548983 C127.238007,13.8482316 125.086826,16.0210095 125.080259,18.7048985 C125.073692,21.394343 127.213928,23.5776765 129.860357,23.5848987 Z" id="Fill-3"></path>
                            <path d="M114.523274,15.2502318 C116.874195,15.2563429 118.786234,13.3213429 118.791707,10.9346763 C118.797726,8.54467627 116.895537,6.60356517 114.544069,6.59745405 C112.188222,6.5918985 110.27673,8.52300961 110.27071,10.9130096 C110.264691,13.3002318 112.167427,15.2446763 114.523274,15.2502318 Z" id="Fill-5"></path>
                            <path d="M99.2955816,10.4444544 C101.35811,10.4494544 103.029366,8.75945437 103.034838,6.66834321 C103.039764,4.57834316 101.376169,2.88000979 99.3136404,2.87500979 C97.254395,2.86945423 95.5831393,4.55945427 95.5782142,6.65000988 C95.5727418,8.74112104 97.235789,10.4388989 99.2955816,10.4444544 Z" id="Fill-7"></path>
                            <path d="M83.3809461,7.84817624 C85.4401914,7.85317624 87.1114472,6.1603985 87.1163723,4.07262077 C87.1218446,1.98206526 85.4587974,0.283176406 83.3990048,0.278176407 C81.3364761,0.273176407 79.6652203,1.96317637 79.659748,4.05373188 C79.6548229,6.14150961 81.3184173,7.84262068 83.3809461,7.84817624 Z" id="Fill-9"></path>
                            <path d="M68.767309,6.81000956 C70.6207941,6.81445401 72.1311628,5.29389849 72.1360879,3.41500965 C72.1399186,1.5300097 70.6372112,0.00445418384 68.7842733,9.73950827e-06 C66.9368078,-0.00443470482 65.4264391,1.51278748 65.421514,3.39834298 C65.4165889,5.27667627 66.9198435,6.80556512 68.767309,6.81000956 Z" id="Fill-11"></path>
                            <path d="M53.7881747,8.47600984 C55.4348049,8.48045428 56.7717001,7.12823203 56.776078,5.45489866 C56.7793614,3.78489862 55.4501275,2.42323192 53.8024028,2.41934304 C52.1568671,2.41489859 50.8183302,3.76989862 50.8139524,5.43989866 C50.8101217,7.11323203 52.1420918,8.47212095 53.7881747,8.47600984 Z" id="Fill-13"></path>
                            <path d="M38.8601504,13.2518432 C40.1839119,13.2551766 41.2586815,12.1657321 41.2619649,10.8223987 C41.2652483,9.48239868 40.1959511,8.38739864 38.8721895,8.38406531 C37.5489752,8.38073198 36.4742056,9.47017645 36.4709222,10.8107321 C36.4676388,12.1535099 37.536936,13.2485099 38.8601504,13.2518432 Z" id="Fill-15"></path>
                            <path d="M23.5953023,21.4851212 C25.0066214,21.4884546 26.1552677,20.3301212 26.1585511,18.892899 C26.1623817,17.4617879 25.0192078,16.2973435 23.6084359,16.2940102 C22.1976641,16.2901213 21.0501122,17.4490102 21.0468288,18.8801213 C21.0429982,20.3173435 22.1845304,21.4817879 23.5953023,21.4851212 Z" id="Fill-17"></path>
                            <path d="M1.94761588,43.9102322 C0.867921177,43.90801 -0.00272974357,43.0163434 6.43153852e-06,41.9202323 C0.00274260665,40.8280101 0.877771407,39.9413434 1.95691887,39.9441212 C3.03442463,39.946899 3.90835896,40.8380101 3.90562278,41.9302323 C3.90288661,43.0263434 3.02512163,43.91301 1.94761588,43.9102322 Z" id="Fill-19"></path>
                        </g>
                        <path d="M138.180239,44.5647324 C138.017163,40.0375101 136.482715,35.111399 139.684588,31.0741768 C143.931679,26.146399 151.411287,23.8847323 154.35979,23.1525101 C154.87638,23.0241767 155.375458,23.5841767 155.100746,24.046399 C153.37805,26.9425101 151.546454,34.4708434 149.249709,37.8897324 C146.099824,42.5780657 142.54608,42.1647324 140.272865,46.2919546 C140.139887,46.5330657 139.775429,46.4019546 139.821396,46.1291768 C140.363159,42.9208435 142.610653,37.436399 144.882773,33.9391768 C146.870878,30.8808434 148.949824,28.6919545 150.303684,27.4236212 C150.383033,27.3491768 150.280152,27.2247323 150.194237,27.2908434 C148.432687,28.6508434 146.987986,29.4891768 144.407773,32.6125101 C141.318084,36.351399 139.700457,42.2186213 138.705584,44.6613991 C138.593401,44.9363991 138.191183,44.8619546 138.180239,44.5647324 Z" id="Fill-36"></path>
                    </g>
                </g>
                <path d="M233.692275,53.6700211 C233.853713,53.6700211 234.000736,53.6173419 234.133346,53.5119819 C234.265956,53.4066219 234.33226,53.266144 234.33226,53.0905441 C234.33226,52.9032374 234.257308,52.7686128 234.107401,52.6866661 C233.957493,52.6047195 233.819119,52.5637468 233.692275,52.5637468 L232.87932,52.5637468 L232.87932,53.6700211 L233.692275,53.6700211 Z M234.453339,56.181088 L233.502009,54.442657 L232.87932,54.442657 L232.87932,56.181088 L231.824208,56.181088 L231.824208,51.6857513 L233.726869,51.6857513 C233.934433,51.6857513 234.136228,51.7091643 234.332261,51.7559909 C234.528293,51.8028176 234.707026,51.8789098 234.868465,51.9842697 C235.029904,52.0896297 235.159629,52.2330342 235.257646,52.4144875 C235.355662,52.5959408 235.404669,52.8212907 235.404669,53.090544 C235.404669,53.3949173 235.321068,53.6466068 235.153864,53.8456201 C234.98666,54.0446334 234.776216,54.1909645 234.522527,54.2846178 L235.698717,56.181088 L234.453339,56.181088 Z M229.558312,53.9860994 C229.558312,53.4358862 229.662092,52.917874 229.869656,52.4320474 C230.07722,51.9462209 230.359734,51.5247872 230.717205,51.167734 C231.074677,50.8106807 231.492681,50.5267983 231.971232,50.3160784 C232.449782,50.1053584 232.960036,50 233.502009,50 C234.043981,50 234.554235,50.1053584 235.032786,50.3160784 C235.511336,50.5267983 235.929341,50.8106807 236.286812,51.167734 C236.644283,51.5247872 236.926797,51.9462209 237.134361,52.4320474 C237.341925,52.917874 237.445705,53.4358862 237.445705,53.9860994 C237.445705,54.5363127 237.341925,55.0513982 237.134361,55.5313714 C236.926797,56.0113447 236.644283,56.4298517 236.286812,56.7869049 C235.929341,57.1439582 235.511336,57.424914 235.032786,57.6297806 C234.554235,57.8346472 234.043981,57.937079 233.502009,57.937079 C232.960036,57.937079 232.449782,57.8346472 231.971232,57.6297806 C231.492681,57.424914 231.074677,57.1439582 230.717205,56.7869049 C230.359734,56.4298517 230.07722,56.0113447 229.869656,55.5313714 C229.662092,55.0513982 229.558312,54.5363127 229.558312,53.9860994 Z M230.181001,53.9860994 C230.181001,54.4426593 230.267485,54.8757994 230.440455,55.2855327 C230.613425,55.695266 230.849813,56.0552405 231.149628,56.3654671 C231.449443,56.6756937 231.801143,56.9186034 232.20474,57.0942033 C232.608337,57.2698033 233.040755,57.357602 233.502008,57.357602 C233.963262,57.357602 234.39568,57.2698033 234.799277,57.0942033 C235.202874,56.9186034 235.554574,56.6756937 235.854389,56.3654671 C236.154204,56.0552405 236.390592,55.695266 236.563562,55.2855327 C236.736532,54.8757994 236.823016,54.4426593 236.823016,53.9860994 C236.823016,53.5178328 236.736532,53.0788395 236.563562,52.6691062 C236.390592,52.259373 236.154204,51.9023251 235.854389,51.5979518 C235.554574,51.2935785 235.202874,51.0535955 234.799277,50.8779955 C234.39568,50.7023955 233.963262,50.6145969 233.502008,50.6145969 C233.040755,50.6145969 232.608337,50.7023955 232.20474,50.8779955 C231.801143,51.0535955 231.449443,51.2935785 231.149628,51.5979518 C230.849813,51.9023251 230.613425,52.259373 230.440455,52.6691062 C230.267485,53.0788395 230.181001,53.5178328 230.181001,53.9860994 Z" id="®"></path>
            </g>
        </g>
    </g>
</svg>