<svg width="152" height="36" viewBox="0 0 152 36" fill="none" xmlns="http://www.w3.org/2000/svg">
<path d="M11.3709 18.4541C11.3872 19.1575 11.2607 19.8569 10.999 20.5101C10.7373 21.1632 10.3458 21.7564 9.84831 22.254C9.35079 22.7515 8.75753 23.1429 8.10441 23.4046C7.45129 23.6664 6.75188 23.7929 6.04846 23.7766H1.69354V30.0668H0V13.1316H6.04846C6.75242 13.1133 7.45274 13.2384 8.10679 13.4994C8.76083 13.7604 9.35491 14.1518 9.85285 14.6497C10.3508 15.1477 10.7422 15.7418 11.0032 16.3958C11.2641 17.0498 11.3893 17.7502 11.3709 18.4541ZM9.6774 18.4541C9.6774 16.2766 8.15327 14.7285 6.04846 14.7285H1.69354V22.1797H6.04846C8.15327 22.1797 9.6774 20.6074 9.6774 18.4541Z" fill="#58595B"/>
<path d="M25.0656 17.9702V30.0668H23.4689V27.6962C22.956 28.5264 22.2355 29.2085 21.3784 29.6751C20.5214 30.1418 19.5575 30.3769 18.5819 30.3572C16.9176 30.3316 15.3302 29.6525 14.1623 28.4666C12.9944 27.2806 12.3398 25.683 12.3398 24.0185C12.3398 22.3541 12.9944 20.7564 14.1623 19.5704C15.3302 18.3845 16.9176 17.7054 18.5819 17.6798C19.5576 17.6602 20.5215 17.8954 21.3786 18.3621C22.2356 18.8289 22.9561 19.5111 23.4689 20.3414V17.9702H25.0656ZM23.4689 24.0188C23.4641 23.0772 23.1805 22.1581 22.6539 21.3775C22.1273 20.5969 21.3813 19.9898 20.51 19.6328C19.6387 19.2757 18.6811 19.1848 17.7582 19.3714C16.8352 19.558 15.9883 20.0139 15.3241 20.6814C14.66 21.3489 14.2085 22.1982 14.0265 23.122C13.8446 24.0459 13.9404 25.003 14.3018 25.8725C14.6633 26.7419 15.2742 27.4849 16.0574 28.0075C16.8407 28.5302 17.7612 28.8091 18.7028 28.8091C19.3325 28.8153 19.9571 28.6955 20.5397 28.4567C21.1224 28.2179 21.6514 27.8649 22.0955 27.4185C22.5396 26.9721 22.8899 26.4413 23.1258 25.8574C23.3617 25.2736 23.4783 24.6484 23.4689 24.0188H23.4689Z" fill="#58595B"/>
<path d="M31.3812 19.5187V26.8493C31.3812 28.9296 32.5183 28.7605 34.8651 28.6635V30.0667C31.5989 30.5507 29.7845 29.7521 29.7845 26.8493V19.5187H27.2441V17.9701H29.7845V15.067L31.3812 14.583V17.9701H34.8651V19.5187H31.3812Z" fill="#58595B"/>
<path d="M42.9447 17.7764V19.3247C41.0092 19.3247 39.1221 20.3409 39.1221 23.3407V30.0664H37.5254V17.9697H39.1221V19.9779C39.9689 18.2843 41.3963 17.7764 42.9447 17.7764Z" fill="#58595B"/>
<path d="M44.7598 14.2445C44.7597 14.0148 44.8278 13.7903 44.9554 13.5993C45.0829 13.4083 45.2643 13.2594 45.4765 13.1715C45.6887 13.0835 45.9222 13.0605 46.1474 13.1053C46.3727 13.1501 46.5797 13.2606 46.7421 13.423C46.9045 13.5854 47.0152 13.7923 47.06 14.0176C47.1048 14.2429 47.0819 14.4764 46.994 14.6886C46.9061 14.9008 46.7573 15.0822 46.5663 15.2098C46.3753 15.3374 46.1508 15.4056 45.9211 15.4056C45.6132 15.4055 45.3179 15.2831 45.1001 15.0654C44.8824 14.8477 44.7599 14.5524 44.7598 14.2445ZM45.1227 17.9701H46.7194V30.0668H45.1227V17.9701Z" fill="#58595B"/>
<path d="M62.1066 17.9702V30.0668H60.5099V27.6962C59.997 28.5264 59.2765 29.2085 58.4195 29.6751C57.5624 30.1418 56.5985 30.3769 55.6229 30.3572C53.9586 30.3316 52.3712 29.6525 51.2033 28.4666C50.0355 27.2806 49.3809 25.683 49.3809 24.0185C49.3809 22.3541 50.0355 20.7564 51.2033 19.5704C52.3712 18.3845 53.9586 17.7054 55.6229 17.6798C56.5986 17.6602 57.5625 17.8954 58.4196 18.3621C59.2766 18.8289 59.9971 19.5111 60.5099 20.3414V17.9702H62.1066ZM60.5099 24.0188C60.5051 23.0772 60.2215 22.1581 59.6949 21.3775C59.1683 20.5969 58.4223 19.9898 57.551 19.6328C56.6797 19.2757 55.7221 19.1848 54.7992 19.3714C53.8763 19.558 53.0293 20.0139 52.3651 20.6814C51.701 21.3489 51.2495 22.1982 51.0675 23.122C50.8856 24.0459 50.9814 25.003 51.3428 25.8725C51.7043 26.7419 52.3152 27.4849 53.0984 28.0075C53.8817 28.5301 54.8022 28.8091 55.7438 28.8091C56.3735 28.8153 56.9981 28.6955 57.5807 28.4567C58.1634 28.2179 58.6924 27.8649 59.1365 27.4185C59.5806 26.9721 59.931 26.4413 60.1668 25.8575C60.4027 25.2736 60.5193 24.6484 60.5099 24.0188Z" fill="#58595B"/>
<path d="M75.0267 27.1294V30.3228H65.2285V13.3877H68.5671V27.1294H75.0267Z" fill="#58595B"/>
<path d="M82.5758 27.831C83.0899 27.8509 83.6017 27.7521 84.0716 27.5423C84.5414 27.3326 84.9567 27.0175 85.2852 26.6215L87.8016 28.0729C86.6645 29.7182 84.8497 30.6617 82.5273 30.6617C78.4629 30.6617 75.8984 27.8795 75.8984 24.2745C75.8984 20.6699 78.4871 17.8877 82.2854 17.8877C85.8659 17.8877 88.4062 20.7181 88.4062 24.2745C88.4043 24.7047 88.3638 25.1339 88.2853 25.5568H79.1644C79.5999 27.1537 80.9304 27.831 82.5758 27.831ZM85.2852 23.1374C85.1664 22.4357 84.7967 21.801 84.2449 21.3515C83.6931 20.9021 82.9967 20.6684 82.2854 20.6941C80.6161 20.6941 79.479 21.5891 79.116 23.1374H85.2852Z" fill="#58595B"/>
<path d="M101.884 22.8956V30.3229H98.7633V23.2826C98.7633 21.6375 97.7714 20.7908 96.3682 20.7908C94.8437 20.7908 93.7066 21.686 93.7066 23.7908V30.3229H90.5859V18.2262H93.7066V19.5812C94.4325 18.4923 95.6905 17.8877 97.3116 17.8877C99.8762 17.8877 101.884 19.6779 101.884 22.8956Z" fill="#58595B"/>
<path d="M116.836 13.3877V30.3228H113.715V28.8954C112.844 30.0082 111.562 30.6616 109.796 30.6616C106.554 30.6616 103.893 27.8795 103.893 24.2745C103.893 20.6698 106.554 17.8876 109.796 17.8876C111.562 17.8876 112.844 18.5408 113.715 19.6536V13.3877H116.836ZM113.715 24.2745C113.715 22.2424 112.288 20.8632 110.376 20.8632C108.441 20.8632 107.014 22.2424 107.014 24.2745C107.014 26.3069 108.441 27.6858 110.376 27.6858C112.288 27.6858 113.715 26.3069 113.715 24.2745Z" fill="#58595B"/>
<path d="M119.328 14.8635C119.326 14.482 119.437 14.1084 119.647 13.7903C119.858 13.4721 120.158 13.2236 120.51 13.0765C120.862 12.9294 121.249 12.8903 121.624 12.9641C121.998 13.0379 122.342 13.2213 122.612 13.491C122.881 13.7607 123.065 14.1045 123.139 14.4788C123.212 14.853 123.173 15.2408 123.026 15.5927C122.879 15.9447 122.631 16.245 122.313 16.4554C121.995 16.6659 121.621 16.777 121.24 16.7746C120.734 16.7695 120.251 16.5665 119.894 16.2092C119.536 15.8519 119.333 15.3688 119.328 14.8635ZM119.691 18.2263H122.812V30.3229H119.691V18.2263Z" fill="#58595B"/>
<path d="M136.966 22.8956V30.3229H133.845V23.2826C133.845 21.6375 132.853 20.7908 131.45 20.7908C129.926 20.7908 128.789 21.686 128.789 23.7908V30.3229H125.668V18.2262H128.789V19.5812C129.515 18.4923 130.773 17.8877 132.394 17.8877C134.958 17.8877 136.966 19.6779 136.966 22.8956Z" fill="#58595B"/>
<path d="M151.941 18.2262V29.7422C151.941 33.7099 148.821 35.5002 145.627 35.5002C143.039 35.5002 140.958 34.5085 139.893 32.5486L142.555 31.0245C143.062 31.9682 143.861 32.718 145.724 32.718C147.684 32.718 148.893 31.6536 148.893 29.7422V28.4359C148.046 29.5731 146.74 30.2747 145.022 30.2747C141.587 30.2747 138.998 27.4922 138.998 24.0812C138.998 20.6941 141.587 17.8877 145.022 17.8877C146.74 17.8877 148.046 18.5893 148.893 19.7264V18.2262H151.941ZM148.893 24.0812C148.893 22.1697 147.466 20.7908 145.506 20.7908C143.546 20.7908 142.119 22.1697 142.119 24.0812C142.119 26.0166 143.546 27.3955 145.506 27.3955C147.466 27.3955 148.893 26.0166 148.893 24.0812Z" fill="#58595B"/>
<path d="M64.6432 1.2479C64.0739 1.19924 63.5011 1.20514 62.9329 1.2655C62.5684 1.29474 62.2208 1.432 61.9347 1.65973C62.181 1.38861 62.406 1.09881 62.6077 0.792932C61.8538 1.06775 61.0574 1.20793 60.255 1.20709C56.2386 1.05055 53.1128 2.07427 51.0542 4.12057C50.9282 4.24583 50.6745 4.67755 50.6459 4.70226C50.6179 4.72652 50.968 3.44283 50.9389 3.46619C47.679 6.07879 47.1742 7.85754 47.2424 9.65937C47.2545 9.97948 47.4081 10.4897 47.4134 10.9293C47.2692 10.6117 47.0421 10.339 46.7559 10.1398C47.0186 10.4883 47.1976 10.8928 47.2789 11.3217C47.2936 11.4425 47.3112 11.6423 47.3288 11.8627C47.9225 11.0562 48.5692 10.2903 49.2648 9.56983C50.5663 8.22536 51.9878 6.36957 55.8013 5.04759C58.3454 4.16567 60.2433 4.08546 63.2682 3.19174C65.2583 2.60376 66.8488 2.03175 67.9296 1.42741C68.0227 1.11492 68.0969 0.795751 68.1663 0.5C66.9428 1.19364 66.0485 1.30645 64.6432 1.2479Z" fill="#BE1E2D"/>
<path d="M67.9088 1.49414C66.9185 2.14677 65.4901 2.68433 63.6804 3.34175C60.702 4.42376 58.4004 4.59751 55.9814 5.48728C52.4599 6.7826 51.1159 8.38646 49.5771 9.86582C48.2241 11.1758 47.0157 12.6274 45.9727 14.1955L46.1669 14.2444C46.5022 13.8614 47.0332 13.211 47.7831 12.4272C47.8577 12.3789 47.9531 12.1622 48.2731 12.3167C48.3475 12.3428 48.4149 12.3856 48.4702 12.4418C48.5255 12.498 48.5672 12.566 48.5922 12.6408C48.6193 12.7264 48.6261 12.8171 48.612 12.9057C48.6649 12.8085 48.6835 12.6964 48.6648 12.5874C48.6432 12.4705 48.5911 12.3614 48.5139 12.271C48.4367 12.1806 48.3371 12.1122 48.225 12.0725C48.699 11.9197 49.2017 11.8771 49.6947 11.9482C49.4251 11.7935 49.122 11.7065 48.8114 11.6946C49.8581 10.8018 51.1384 10.2272 52.5012 10.0387C52.2412 9.90932 51.5258 9.65405 51.5258 9.65405C51.5258 9.65405 52.5 9.55973 52.6276 9.5181C53.6143 9.20039 54.6427 9.03079 55.6791 9.01484C56.8076 8.966 57.9158 8.69902 58.9427 8.22866C58.9793 8.21004 56.3458 7.87814 56.3869 7.87707C57.8257 7.84002 59.3044 8.0804 60.6015 7.73839C60.6247 7.73229 59.2255 7.05803 59.2255 7.05803C59.6628 7.18334 60.1077 7.28051 60.5575 7.34895C60.8555 7.38418 61.8929 7.41667 62.587 6.95168C62.2011 6.8134 61.7252 6.65703 61.7252 6.65703C62.108 6.74551 62.502 6.77564 62.8938 6.74638C62.5238 6.53577 61.511 6.0802 61.511 6.0802C61.8983 6.26344 62.3075 6.39659 62.7285 6.47643C63.274 6.45104 63.8002 6.26737 64.243 5.94784C64.2577 5.93761 63.2706 5.48276 62.817 5.27463C63.1874 5.4366 63.9323 5.72709 64.3621 5.65107C64.7029 5.58411 65.0146 5.41324 65.2544 5.16194C65.0384 5.04528 64.8147 4.94363 64.5848 4.85772C64.5848 4.85772 65.3705 5.05943 65.3867 5.04485C65.4208 5.01418 65.4547 4.98328 65.4885 4.95215C65.5176 4.92526 64.2938 4.62393 64.3227 4.59673C64.3512 4.56983 65.6323 4.8171 65.6604 4.7899C66.008 4.45554 66.3305 4.096 66.6252 3.71419C66.6484 3.68404 65.6246 3.56169 65.6246 3.56169C65.6246 3.56169 66.7287 3.57708 66.7458 3.55387C66.7993 3.481 66.8722 3.37685 66.8722 3.37685L65.7387 3.20923C66.1037 3.26814 66.4778 3.23046 66.8238 3.09995C67.388 2.82412 67.6972 2.18067 67.9088 1.49414Z" fill="#58595B"/>
</svg>
