<svg width="152" height="35" viewBox="0 0 152 35" fill="none" xmlns="http://www.w3.org/2000/svg">
<path d="M11.3709 17.9531C11.3872 18.6566 11.2607 19.356 10.999 20.0091C10.7373 20.6622 10.3458 21.2555 9.84831 21.753C9.35079 22.2505 8.75753 22.642 8.10441 22.9037C7.45129 23.1654 6.75188 23.2919 6.04846 23.2756H1.69354V29.5658H0V12.6307H6.04846C6.75242 12.6123 7.45274 12.7375 8.10679 12.9984C8.76083 13.2594 9.35491 13.6508 9.85285 14.1488C10.3508 14.6467 10.7422 15.2408 11.0032 15.8948C11.2641 16.5489 11.3893 17.2492 11.3709 17.9531ZM9.6774 17.9531C9.6774 15.7756 8.15327 14.2275 6.04846 14.2275H1.69354V21.6788H6.04846C8.15327 21.6788 9.6774 20.1064 9.6774 17.9531Z" fill="white"/>
<path d="M25.0656 17.4692V29.5658H23.4689V27.1952C22.956 28.0254 22.2355 28.7075 21.3784 29.1742C20.5214 29.6408 19.5575 29.8759 18.5819 29.8562C16.9176 29.8306 15.3302 29.1516 14.1623 27.9656C12.9944 26.7797 12.3398 25.182 12.3398 23.5175C12.3398 21.8531 12.9944 20.2554 14.1623 19.0694C15.3302 17.8835 16.9176 17.2044 18.5819 17.1789C19.5576 17.1592 20.5215 17.3944 21.3786 17.8611C22.2356 18.3279 22.9561 19.0101 23.4689 19.8404V17.4692H25.0656ZM23.4689 23.5178C23.4641 22.5762 23.1805 21.6571 22.6539 20.8765C22.1273 20.0959 21.3813 19.4888 20.51 19.1318C19.6387 18.7747 18.6811 18.6838 17.7582 18.8704C16.8352 19.0571 15.9883 19.5129 15.3241 20.1804C14.66 20.8479 14.2085 21.6972 14.0265 22.6211C13.8446 23.5449 13.9404 24.502 14.3018 25.3715C14.6633 26.241 15.2742 26.9839 16.0574 27.5065C16.8407 28.0292 17.7612 28.3081 18.7028 28.3081C19.3325 28.3144 19.9571 28.1945 20.5397 27.9557C21.1224 27.7169 21.6514 27.3639 22.0955 26.9175C22.5396 26.4711 22.8899 25.9403 23.1258 25.3565C23.3617 24.7726 23.4783 24.1474 23.4689 23.5178H23.4689Z" fill="white"/>
<path d="M31.3812 19.0178V26.3484C31.3812 28.4286 32.5183 28.2595 34.8651 28.1626V29.5657C31.5989 30.0497 29.7845 29.2512 29.7845 26.3484V19.0178H27.2441V17.4691H29.7845V14.566L31.3812 14.082V17.4691H34.8651V19.0178H31.3812Z" fill="white"/>
<path d="M42.9447 17.2773V18.8257C41.0092 18.8257 39.1221 19.8419 39.1221 22.8417V29.5673H37.5254V17.4707H39.1221V19.4788C39.9689 17.7853 41.3963 17.2773 42.9447 17.2773Z" fill="white"/>
<path d="M44.7598 13.7435C44.7597 13.5138 44.8278 13.2893 44.9554 13.0983C45.0829 12.9073 45.2643 12.7584 45.4765 12.6705C45.6887 12.5826 45.9222 12.5595 46.1474 12.6043C46.3727 12.6491 46.5797 12.7597 46.7421 12.9221C46.9045 13.0845 47.0152 13.2914 47.06 13.5166C47.1048 13.7419 47.0819 13.9754 46.994 14.1876C46.9061 14.3998 46.7573 14.5812 46.5663 14.7088C46.3753 14.8365 46.1508 14.9046 45.9211 14.9046C45.6132 14.9045 45.3179 14.7821 45.1001 14.5644C44.8824 14.3467 44.7599 14.0515 44.7598 13.7435ZM45.1227 17.4691H46.7194V29.5658H45.1227V17.4691Z" fill="white"/>
<path d="M62.1066 17.4692V29.5658H60.5099V27.1952C59.997 28.0254 59.2765 28.7075 58.4195 29.1742C57.5624 29.6408 56.5985 29.8759 55.6229 29.8562C53.9586 29.8306 52.3712 29.1516 51.2033 27.9656C50.0355 26.7797 49.3809 25.182 49.3809 23.5175C49.3809 21.8531 50.0355 20.2554 51.2033 19.0694C52.3712 17.8835 53.9586 17.2044 55.6229 17.1789C56.5986 17.1592 57.5625 17.3944 58.4196 17.8611C59.2766 18.3279 59.9971 19.0101 60.5099 19.8404V17.4692H62.1066ZM60.5099 23.5178C60.5051 22.5762 60.2215 21.6571 59.6949 20.8765C59.1683 20.0959 58.4223 19.4888 57.551 19.1318C56.6797 18.7747 55.7221 18.6838 54.7992 18.8704C53.8763 19.0571 53.0293 19.5129 52.3651 20.1804C51.701 20.8479 51.2495 21.6972 51.0675 22.6211C50.8856 23.5449 50.9814 24.502 51.3428 25.3715C51.7043 26.241 52.3152 26.9839 53.0984 27.5065C53.8817 28.0292 54.8022 28.3081 55.7438 28.3081C56.3735 28.3144 56.9981 28.1946 57.5807 27.9557C58.1634 27.7169 58.6924 27.3639 59.1365 26.9175C59.5806 26.4711 59.931 25.9403 60.1668 25.3565C60.4027 24.7726 60.5193 24.1474 60.5099 23.5178Z" fill="white"/>
<path d="M75.0267 26.6284V29.8218H65.2285V12.8867H68.5671V26.6284H75.0267Z" fill="white"/>
<path d="M82.5758 27.3301C83.0899 27.3499 83.6017 27.2511 84.0716 27.0413C84.5414 26.8316 84.9567 26.5165 85.2852 26.1205L87.8016 27.5719C86.6645 29.2173 84.8497 30.1607 82.5273 30.1607C78.4629 30.1607 75.8984 27.3785 75.8984 23.7736C75.8984 20.1689 78.4871 17.3867 82.2854 17.3867C85.8659 17.3867 88.4062 20.2171 88.4062 23.7736C88.4043 24.2038 88.3638 24.6329 88.2853 25.0558H79.1644C79.5999 26.6527 80.9304 27.3301 82.5758 27.3301ZM85.2852 22.6365C85.1664 21.9347 84.7967 21.3 84.2449 20.8506C83.6931 20.4011 82.9967 20.1674 82.2854 20.1931C80.6161 20.1931 79.479 21.0881 79.116 22.6365H85.2852Z" fill="white"/>
<path d="M101.884 22.3946V29.8219H98.7633V22.7816C98.7633 21.1366 97.7714 20.2898 96.3682 20.2898C94.8437 20.2898 93.7066 21.185 93.7066 23.2899V29.8219H90.5859V17.7252H93.7066V19.0803C94.4325 17.9914 95.6905 17.3867 97.3116 17.3867C99.8762 17.3867 101.884 19.1769 101.884 22.3946Z" fill="white"/>
<path d="M116.836 12.8867V29.8218H113.715V28.3944C112.844 29.5073 111.562 30.1607 109.796 30.1607C106.554 30.1607 103.893 27.3785 103.893 23.7735C103.893 20.1688 106.554 17.3867 109.796 17.3867C111.562 17.3867 112.844 18.0398 113.715 19.1526V12.8867H116.836ZM113.715 23.7735C113.715 21.7414 112.288 20.3622 110.376 20.3622C108.441 20.3622 107.014 21.7414 107.014 23.7735C107.014 25.8059 108.441 27.1849 110.376 27.1849C112.288 27.1848 113.715 25.8059 113.715 23.7735Z" fill="white"/>
<path d="M119.328 14.3635C119.326 13.982 119.437 13.6084 119.647 13.2903C119.858 12.9721 120.158 12.7236 120.51 12.5765C120.862 12.4294 121.249 12.3903 121.624 12.4641C121.998 12.5379 122.342 12.7213 122.612 12.991C122.881 13.2607 123.065 13.6045 123.139 13.9788C123.212 14.353 123.173 14.7408 123.026 15.0927C122.879 15.4447 122.631 15.745 122.313 15.9554C121.995 16.1659 121.621 16.277 121.24 16.2746C120.734 16.2695 120.251 16.0665 119.894 15.7092C119.536 15.3519 119.333 14.8688 119.328 14.3635ZM119.691 17.7263H122.812V29.8229H119.691V17.7263Z" fill="white"/>
<path d="M136.966 22.3946V29.8219H133.845V22.7816C133.845 21.1366 132.853 20.2898 131.45 20.2898C129.926 20.2898 128.789 21.185 128.789 23.2899V29.8219H125.668V17.7252H128.789V19.0803C129.515 17.9914 130.773 17.3867 132.394 17.3867C134.958 17.3867 136.966 19.1769 136.966 22.3946Z" fill="white"/>
<path d="M151.941 17.7252V29.2412C151.941 33.209 148.821 34.9992 145.627 34.9992C143.039 34.9992 140.958 34.0075 139.893 32.0476L142.555 30.5235C143.062 31.4672 143.861 32.217 145.724 32.217C147.684 32.217 148.893 31.1526 148.893 29.2412V27.935C148.046 29.0721 146.74 29.7737 145.022 29.7737C141.587 29.7737 138.998 26.9912 138.998 23.5802C138.998 20.1931 141.587 17.3867 145.022 17.3867C146.74 17.3867 148.046 18.0883 148.893 19.2254V17.7252H151.941ZM148.893 23.5802C148.893 21.6688 147.466 20.2898 145.506 20.2898C143.546 20.2898 142.119 21.6687 142.119 23.5802C142.119 25.5156 143.546 26.8945 145.506 26.8945C147.466 26.8945 148.893 25.5156 148.893 23.5802Z" fill="white"/>
<path d="M64.6432 0.747902C64.0739 0.699244 63.5011 0.705138 62.9329 0.765504C62.5684 0.794743 62.2208 0.931996 61.9347 1.15973C62.181 0.888607 62.406 0.598807 62.6077 0.292932C61.8538 0.567747 61.0574 0.707933 60.255 0.707095C56.2386 0.550551 53.1128 1.57427 51.0542 3.62057C50.9282 3.74583 50.6745 4.17755 50.6459 4.20226C50.6179 4.22652 50.968 2.94283 50.9389 2.96619C47.679 5.57879 47.1742 7.35754 47.2424 9.15937C47.2545 9.47948 47.4081 9.98968 47.4134 10.4293C47.2692 10.1117 47.0421 9.83899 46.7559 9.63976C47.0186 9.98834 47.1976 10.3928 47.2789 10.8217C47.2936 10.9425 47.3112 11.1423 47.3288 11.3627C47.9225 10.5562 48.5692 9.79027 49.2648 9.06983C50.5663 7.72536 51.9878 5.86957 55.8013 4.54759C58.3454 3.66567 60.2433 3.58546 63.2682 2.69174C65.2583 2.10376 66.8488 1.53175 67.9296 0.927408C68.0227 0.614921 68.0969 0.295751 68.1663 0C66.9428 0.693642 66.0485 0.80645 64.6432 0.747902Z" fill="#BE1E2D"/>
<path d="M67.9088 0.994141C66.9185 1.64677 65.4901 2.18433 63.6804 2.84175C60.702 3.92376 58.4004 4.09751 55.9814 4.98728C52.4599 6.2826 51.1159 7.88646 49.5771 9.36582C48.2241 10.6758 47.0157 12.1274 45.9727 13.6955L46.1669 13.7444C46.5022 13.3614 47.0332 12.711 47.7831 11.9272C47.8577 11.8789 47.9531 11.6622 48.2731 11.8167C48.3475 11.8428 48.4149 11.8856 48.4702 11.9418C48.5255 11.998 48.5672 12.066 48.5922 12.1408C48.6193 12.2264 48.6261 12.3171 48.612 12.4057C48.6649 12.3085 48.6835 12.1964 48.6648 12.0874C48.6432 11.9705 48.5911 11.8614 48.5139 11.771C48.4367 11.6806 48.3371 11.6122 48.225 11.5725C48.699 11.4197 49.2017 11.3771 49.6947 11.4482C49.4251 11.2935 49.122 11.2065 48.8114 11.1946C49.8581 10.3018 51.1384 9.72723 52.5012 9.53871C52.2412 9.40932 51.5258 9.15405 51.5258 9.15405C51.5258 9.15405 52.5 9.05973 52.6276 9.0181C53.6143 8.70039 54.6427 8.53079 55.6791 8.51484C56.8076 8.466 57.9158 8.19902 58.9427 7.72866C58.9793 7.71004 56.3458 7.37814 56.3869 7.37707C57.8257 7.34002 59.3044 7.5804 60.6015 7.23839C60.6247 7.23229 59.2255 6.55803 59.2255 6.55803C59.6628 6.68334 60.1077 6.78051 60.5575 6.84895C60.8555 6.88418 61.8929 6.91667 62.587 6.45168C62.2011 6.3134 61.7252 6.15703 61.7252 6.15703C62.108 6.24551 62.502 6.27564 62.8938 6.24638C62.5238 6.03577 61.511 5.5802 61.511 5.5802C61.8983 5.76344 62.3075 5.89659 62.7285 5.97643C63.274 5.95104 63.8002 5.76737 64.243 5.44784C64.2577 5.43761 63.2706 4.98276 62.817 4.77463C63.1874 4.9366 63.9323 5.22709 64.3621 5.15107C64.7029 5.08411 65.0146 4.91324 65.2544 4.66194C65.0384 4.54528 64.8147 4.44363 64.5848 4.35772C64.5848 4.35772 65.3705 4.55943 65.3867 4.54485C65.4208 4.51418 65.4547 4.48328 65.4885 4.45215C65.5176 4.42526 64.2938 4.12393 64.3227 4.09673C64.3512 4.06983 65.6323 4.3171 65.6604 4.2899C66.008 3.95554 66.3305 3.596 66.6252 3.21419C66.6484 3.18404 65.6246 3.06169 65.6246 3.06169C65.6246 3.06169 66.7287 3.07708 66.7458 3.05387C66.7993 2.981 66.8722 2.87685 66.8722 2.87685L65.7387 2.70923C66.1037 2.76814 66.4778 2.73046 66.8238 2.59995C67.388 2.32412 67.6972 1.68067 67.9088 0.994141Z" fill="white"/>
</svg>
